<?xml version="1.0" encoding="UTF-8"?>
<svg xmlns="http://www.w3.org/2000/svg" xmlns:xlink="http://www.w3.org/1999/xlink" version="1.1" width="512" height="512" x="0" y="0" viewBox="0 0 512.009 512.009" style="enable-background:new 0 0 512 512" xml:space="preserve" class="">
  <g>
    <linearGradient id="a" x1="4.394" x2="506.098" y1="507.616" y2="5.911" gradientUnits="userSpaceOnUse">
      <stop stop-opacity="1" stop-color="#5558ff" offset="0"/>
      <stop stop-opacity="1" stop-color="#b100ff" offset="1"/>
    </linearGradient>
    <path fill="url(#a)" d="m39.407 408.962 21.214-21.213c5.858-5.858 5.858-15.355 0-21.213-5.856-5.858-15.354-5.857-21.213 0l-21.214 21.213c-5.858 5.858-5.858 15.355 0 21.213s15.355 5.858 21.213 0zm63.64 0c-5.857-5.858-15.355-5.858-21.213 0l-77.44 77.44c-5.858 5.858-5.858 15.355 0 21.213 5.857 5.857 15.355 5.858 21.213 0l77.44-77.44c5.859-5.858 5.859-15.355 0-21.213zM510.341 14.396a15 15 0 0 0-12.729-12.728c-1.613-.23-40.129-5.535-93.602 4.063-69.373 12.452-133.502 44.851-184.291 95.64-13.546 13.546-28.461 30.11-43.174 47.94-18.182-4.118-77.974-11.646-137.137 47.519-52.431 52.43-22.514 83.553-21.214 84.853a15 15 0 0 0 21.212.001c8.5-8.5 19.8-13.181 31.82-13.181s23.32 4.681 31.819 13.18l31.821 31.82-10.607 10.607c-17.586 17.584-17.59 46.051 0 63.639 17.584 17.585 46.052 17.589 63.639 0l10.607-10.607 31.836 31.836c17.529 17.547 17.524 46.083-.016 63.623a15.002 15.002 0 0 0 0 21.214c.698.698 10.016 9.667 26.63 9.667 14.29 0 33.979-6.637 58.223-30.881 59.164-59.164 51.636-118.955 47.519-137.138 17.831-14.713 34.395-29.628 47.941-43.175 50.685-50.685 83.173-114.831 95.64-184.291 9.597-53.47 4.294-91.987 4.063-93.601zM71.228 238.502c-10.646 0-20.952 2.203-30.399 6.393 2.93-6.961 8.881-15.94 19.793-26.853 25.851-25.851 58.228-42.818 94.27-41.335-18.486 24.438-35.262 49.549-46.829 71.451-11.118-6.289-23.714-9.656-36.835-9.656zm95.458 128.034c-5.86 5.861-15.349 5.862-21.212 0-5.849-5.849-5.849-15.365 0-21.213l84.853-84.853c5.847-5.848 15.364-5.85 21.214 0 5.849 5.849 5.849 15.365 0 21.214zm127.28 84.853c-10.939 10.939-19.935 16.892-26.902 19.814 9.507-21.492 8.435-46.57-3.216-67.254 21.923-11.578 47.062-28.375 71.522-46.882.861 20.784-4.314 57.232-41.404 94.322zm95.46-180.313c-43.21 43.21-104.69 89.222-145.288 109.271l-24.418-24.418 53.033-53.033c17.586-17.585 17.59-46.052 0-63.64-17.546-17.546-46.096-17.543-63.64 0l-53.033 53.033-24.417-24.417c20.047-40.597 66.06-102.077 109.27-145.289 37.668-37.668 82.327-64.154 133.104-79.029l94.304 94.304c-12.467 42.322-35.827 90.13-78.915 133.218zm87.06-167.498-68.144-68.144c32.279-5.891 58.844-5.799 73.269-5.041.743 14.367.793 40.805-5.125 73.185zm-161.306 8.399c-23.448 23.447-23.453 61.402 0 84.853 23.391 23.391 61.454 23.396 84.853 0 23.394-23.394 23.394-61.459 0-84.854-23.448-23.445-61.401-23.451-84.853.001zm63.64 63.64c-11.697 11.697-30.729 11.697-42.427 0-11.724-11.724-11.727-30.701 0-42.426 11.724-11.724 30.7-11.725 42.427 0 11.696 11.697 11.696 30.729 0 42.426zM124.261 451.389l-21.213 21.213c-5.858 5.858-5.858 15.355 0 21.213 5.857 5.857 15.355 5.858 21.213 0l21.213-21.213c5.858-5.858 5.858-15.355 0-21.213-5.858-5.859-15.356-5.859-21.213 0z" opacity="1" data-original="url(#a)" class=""/>
  </g>
</svg>
